<svg id="visual" viewBox="0 0 900 675" width="900" height="675" xmlns="http://www.w3.org/2000/svg" xmlns:xlink="http://www.w3.org/1999/xlink" version="1.1"><rect x="0" y="0" width="900" height="675" fill="#c72424"></rect><defs><linearGradient id="grad1_0" x1="25%" y1="100%" x2="100%" y2="0%"><stop offset="23.333333333333336%" stop-color="#fa7268" stop-opacity="1"></stop><stop offset="76.66666666666666%" stop-color="#fa7268" stop-opacity="1"></stop></linearGradient></defs><defs><linearGradient id="grad1_1" x1="25%" y1="100%" x2="100%" y2="0%"><stop offset="23.333333333333336%" stop-color="#fa7268" stop-opacity="1"></stop><stop offset="76.66666666666666%" stop-color="#e14e46" stop-opacity="1"></stop></linearGradient></defs><defs><linearGradient id="grad1_2" x1="25%" y1="100%" x2="100%" y2="0%"><stop offset="23.333333333333336%" stop-color="#c72424" stop-opacity="1"></stop><stop offset="76.66666666666666%" stop-color="#e14e46" stop-opacity="1"></stop></linearGradient></defs><defs><linearGradient id="grad2_0" x1="0%" y1="100%" x2="75%" y2="0%"><stop offset="23.333333333333336%" stop-color="#fa7268" stop-opacity="1"></stop><stop offset="76.66666666666666%" stop-color="#fa7268" stop-opacity="1"></stop></linearGradient></defs><defs><linearGradient id="grad2_1" x1="0%" y1="100%" x2="75%" y2="0%"><stop offset="23.333333333333336%" stop-color="#e14e46" stop-opacity="1"></stop><stop offset="76.66666666666666%" stop-color="#fa7268" stop-opacity="1"></stop></linearGradient></defs><defs><linearGradient id="grad2_2" x1="0%" y1="100%" x2="75%" y2="0%"><stop offset="23.333333333333336%" stop-color="#e14e46" stop-opacity="1"></stop><stop offset="76.66666666666666%" stop-color="#c72424" stop-opacity="1"></stop></linearGradient></defs><g transform="translate(900, 675)"><path d="M-393.7 0C-391.1 -36.3 -388.4 -72.6 -367.1 -98.4C-345.7 -124.1 -305.6 -139.2 -288.4 -166.5C-271.2 -193.8 -276.8 -233.1 -265.9 -265.9C-254.9 -298.6 -227.4 -324.7 -196.9 -341C-166.3 -357.3 -132.7 -363.8 -99.4 -370.9C-66.1 -378.1 -33 -385.9 0 -393.7L0 0Z" fill="#d43b35"></path><path d="M-262.5 0C-260.7 -24.2 -258.9 -48.4 -244.7 -65.6C-230.5 -82.7 -203.7 -92.8 -192.3 -111C-180.8 -129.2 -184.5 -155.4 -177.2 -177.2C-170 -199.1 -151.6 -216.5 -131.3 -227.3C-110.9 -238.2 -88.5 -242.5 -66.3 -247.3C-44 -252 -22 -257.3 0 -262.5L0 0Z" fill="#ee6057"></path><path d="M-131.2 0C-130.4 -12.1 -129.5 -24.2 -122.4 -32.8C-115.2 -41.4 -101.9 -46.4 -96.1 -55.5C-90.4 -64.6 -92.3 -77.7 -88.6 -88.6C-85 -99.5 -75.8 -108.2 -65.6 -113.7C-55.4 -119.1 -44.2 -121.3 -33.1 -123.6C-22 -126 -11 -128.6 0 -131.2L0 0Z" fill="#fa7268"></path></g><g transform="translate(0, 0)"><path d="M393.8 0C393.3 34.9 392.9 69.7 380.3 101.9C367.8 134.1 343.1 163.5 313.5 181C283.9 198.5 249.3 203.9 230.5 230.5C211.8 257.1 208.8 304.8 187.5 324.8C166.2 344.7 126.5 337 92.1 343.9C57.8 350.7 28.9 372.2 0 393.8L0 0Z" fill="#d43b35"></path><path d="M262.5 0C262.2 23.2 261.9 46.5 253.6 67.9C245.2 89.4 228.8 109 209 120.7C189.2 132.3 166.2 136 153.7 153.7C141.2 171.4 139.2 203.2 125 216.5C110.8 229.8 84.3 224.7 61.4 229.2C38.5 233.8 19.3 248.2 0 262.5L0 0Z" fill="#ee6057"></path><path d="M131.3 0C131.1 11.6 131 23.2 126.8 34C122.6 44.7 114.4 54.5 104.5 60.3C94.6 66.2 83.1 68 76.8 76.8C70.6 85.7 69.6 101.6 62.5 108.3C55.4 114.9 42.2 112.3 30.7 114.6C19.3 116.9 9.6 124.1 0 131.3L0 0Z" fill="#fa7268"></path></g></svg>