<svg id="visual" viewBox="0 0 960 540" width="960" height="540" xmlns="http://www.w3.org/2000/svg" xmlns:xlink="http://www.w3.org/1999/xlink" version="1.1"><rect x="0" y="0" width="960" height="540" fill="#00060b"></rect><path d="M0 319L22.8 328.8C45.7 338.7 91.3 358.3 137 357.8C182.7 357.3 228.3 336.7 274 338.3C319.7 340 365.3 364 411.2 366.7C457 369.3 503 350.7 548.8 343.3C594.7 336 640.3 340 686 346.3C731.7 352.7 777.3 361.3 823 357.7C868.7 354 914.3 338 937.2 330L960 322L960 541L937.2 541C914.3 541 868.7 541 823 541C777.3 541 731.7 541 686 541C640.3 541 594.7 541 548.8 541C503 541 457 541 411.2 541C365.3 541 319.7 541 274 541C228.3 541 182.7 541 137 541C91.3 541 45.7 541 22.8 541L0 541Z" fill="#fa7268"></path><path d="M0 403L22.8 400C45.7 397 91.3 391 137 387.2C182.7 383.3 228.3 381.7 274 373.3C319.7 365 365.3 350 411.2 347.8C457 345.7 503 356.3 548.8 362.8C594.7 369.3 640.3 371.7 686 375.5C731.7 379.3 777.3 384.7 823 389.5C868.7 394.3 914.3 398.7 937.2 400.8L960 403L960 541L937.2 541C914.3 541 868.7 541 823 541C777.3 541 731.7 541 686 541C640.3 541 594.7 541 548.8 541C503 541 457 541 411.2 541C365.3 541 319.7 541 274 541C228.3 541 182.7 541 137 541C91.3 541 45.7 541 22.8 541L0 541Z" fill="#f56a60"></path><path d="M0 410L22.8 404.2C45.7 398.3 91.3 386.7 137 378.3C182.7 370 228.3 365 274 365.7C319.7 366.3 365.3 372.7 411.2 375.5C457 378.3 503 377.7 548.8 376.7C594.7 375.7 640.3 374.3 686 381.2C731.7 388 777.3 403 823 400.3C868.7 397.7 914.3 377.3 937.2 367.2L960 357L960 541L937.2 541C914.3 541 868.7 541 823 541C777.3 541 731.7 541 686 541C640.3 541 594.7 541 548.8 541C503 541 457 541 411.2 541C365.3 541 319.7 541 274 541C228.3 541 182.7 541 137 541C91.3 541 45.7 541 22.8 541L0 541Z" fill="#ef6259"></path><path d="M0 374L22.8 381.8C45.7 389.7 91.3 405.3 137 410.5C182.7 415.7 228.3 410.3 274 406C319.7 401.7 365.3 398.3 411.2 401.7C457 405 503 415 548.8 414.7C594.7 414.3 640.3 403.7 686 404.7C731.7 405.7 777.3 418.3 823 415.3C868.7 412.3 914.3 393.7 937.2 384.3L960 375L960 541L937.2 541C914.3 541 868.7 541 823 541C777.3 541 731.7 541 686 541C640.3 541 594.7 541 548.8 541C503 541 457 541 411.2 541C365.3 541 319.7 541 274 541C228.3 541 182.7 541 137 541C91.3 541 45.7 541 22.8 541L0 541Z" fill="#e95a51"></path><path d="M0 448L22.8 446.2C45.7 444.3 91.3 440.7 137 436.7C182.7 432.7 228.3 428.3 274 422.5C319.7 416.7 365.3 409.3 411.2 408.3C457 407.3 503 412.7 548.8 415.2C594.7 417.7 640.3 417.3 686 415.2C731.7 413 777.3 409 823 407.2C868.7 405.3 914.3 405.7 937.2 405.8L960 406L960 541L937.2 541C914.3 541 868.7 541 823 541C777.3 541 731.7 541 686 541C640.3 541 594.7 541 548.8 541C503 541 457 541 411.2 541C365.3 541 319.7 541 274 541C228.3 541 182.7 541 137 541C91.3 541 45.7 541 22.8 541L0 541Z" fill="#e4524a"></path><path d="M0 417L22.8 422.5C45.7 428 91.3 439 137 446.8C182.7 454.7 228.3 459.3 274 455.7C319.7 452 365.3 440 411.2 432.8C457 425.7 503 423.3 548.8 427.2C594.7 431 640.3 441 686 448C731.7 455 777.3 459 823 460.5C868.7 462 914.3 461 937.2 460.5L960 460L960 541L937.2 541C914.3 541 868.7 541 823 541C777.3 541 731.7 541 686 541C640.3 541 594.7 541 548.8 541C503 541 457 541 411.2 541C365.3 541 319.7 541 274 541C228.3 541 182.7 541 137 541C91.3 541 45.7 541 22.8 541L0 541Z" fill="#de4a42"></path><path d="M0 473L22.8 469C45.7 465 91.3 457 137 457.5C182.7 458 228.3 467 274 469.2C319.7 471.3 365.3 466.7 411.2 461.2C457 455.7 503 449.3 548.8 446C594.7 442.7 640.3 442.3 686 445.3C731.7 448.3 777.3 454.7 823 454.7C868.7 454.7 914.3 448.3 937.2 445.2L960 442L960 541L937.2 541C914.3 541 868.7 541 823 541C777.3 541 731.7 541 686 541C640.3 541 594.7 541 548.8 541C503 541 457 541 411.2 541C365.3 541 319.7 541 274 541C228.3 541 182.7 541 137 541C91.3 541 45.7 541 22.8 541L0 541Z" fill="#d9413b"></path><path d="M0 495L22.8 492.2C45.7 489.3 91.3 483.7 137 480.5C182.7 477.3 228.3 476.7 274 475.8C319.7 475 365.3 474 411.2 473C457 472 503 471 548.8 470C594.7 469 640.3 468 686 467.3C731.7 466.7 777.3 466.3 823 466.5C868.7 466.7 914.3 467.3 937.2 467.7L960 468L960 541L937.2 541C914.3 541 868.7 541 823 541C777.3 541 731.7 541 686 541C640.3 541 594.7 541 548.8 541C503 541 457 541 411.2 541C365.3 541 319.7 541 274 541C228.3 541 182.7 541 137 541C91.3 541 45.7 541 22.8 541L0 541Z" fill="#d33833"></path><path d="M0 486L22.8 487.8C45.7 489.7 91.3 493.3 137 494.8C182.7 496.3 228.3 495.7 274 497.2C319.7 498.7 365.3 502.3 411.2 502.3C457 502.3 503 498.7 548.8 497C594.7 495.3 640.3 495.7 686 493.5C731.7 491.3 777.3 486.7 823 485.2C868.7 483.7 914.3 485.3 937.2 486.2L960 487L960 541L937.2 541C914.3 541 868.7 541 823 541C777.3 541 731.7 541 686 541C640.3 541 594.7 541 548.8 541C503 541 457 541 411.2 541C365.3 541 319.7 541 274 541C228.3 541 182.7 541 137 541C91.3 541 45.7 541 22.8 541L0 541Z" fill="#cd2f2c"></path><path d="M0 519L22.8 519.7C45.7 520.3 91.3 521.7 137 522.8C182.7 524 228.3 525 274 525C319.7 525 365.3 524 411.2 520.3C457 516.7 503 510.3 548.8 508.2C594.7 506 640.3 508 686 509.2C731.7 510.3 777.3 510.7 823 512.5C868.7 514.3 914.3 517.7 937.2 519.3L960 521L960 541L937.2 541C914.3 541 868.7 541 823 541C777.3 541 731.7 541 686 541C640.3 541 594.7 541 548.8 541C503 541 457 541 411.2 541C365.3 541 319.7 541 274 541C228.3 541 182.7 541 137 541C91.3 541 45.7 541 22.8 541L0 541Z" fill="#c72424"></path></svg>